<svg xmlns="http://www.w3.org/2000/svg" width="256" height="256" viewBox="0 0 100 100"><path fill="#c60000" d="M53.93 27.57L67.78 27.57L67.78 28.09L64.14 28.42Q62.38 28.55 61.73 29.04Q61.08 29.52 60.63 31.02L60.63 31.02L47.69 73.47L46.65 73.47L35.28 41.09L25.40 73.47L24.36 73.47L8.56 28.61L3.23 28.09L3.23 27.57L19.48 27.57L19.48 28.09L13.83 28.61L26.63 65.14L26.89 65.14L34.69 39.53L30.86 28.61L25.53 28.09L25.53 27.57L41.78 27.57L41.78 28.09L36.12 28.61L48.93 65.14L49.19 65.14L59.59 31.02Q59.78 30.30 59.78 29.78L59.78 29.78Q59.78 29.07 59.39 28.78Q59.00 28.48 57.90 28.42L57.90 28.42L53.93 28.09L53.93 27.57ZM82.66 73.47Q86.69 73.47 89.91 71.77Q93.13 70.08 94.95 67.13Q96.77 64.17 96.77 60.40L96.77 60.40Q96.77 57.02 95.31 54.71Q93.84 52.41 91.47 50.84Q89.10 49.28 85.20 47.53L85.20 47.53Q80.84 45.52 78.47 44.08Q76.10 42.66 74.77 40.70Q73.43 38.75 73.43 35.89L73.43 35.89Q73.43 31.93 75.84 29.62Q78.24 27.31 82.27 27.31L82.27 27.31Q88.97 27.31 92.22 34.01L92.22 34.01Q93.84 37.32 94.88 41.68L94.88 41.68L95.53 41.48L94.88 27.31L94.04 27.31L92.48 30.43Q89.81 28.35 87.51 27.44Q85.20 26.53 82.53 26.53L82.53 26.53Q78.70 26.53 75.68 28.13Q72.65 29.72 70.93 32.55Q69.21 35.37 69.21 38.95L69.21 38.95Q69.21 42.46 70.80 44.90Q72.39 47.33 74.80 48.86Q77.20 50.39 80.78 51.95L80.78 51.95Q85.13 53.83 87.54 55.27Q89.94 56.69 91.34 58.71Q92.74 60.72 92.74 63.65L92.74 63.65Q92.74 67.81 90.11 70.25Q87.47 72.69 82.79 72.69L82.79 72.69Q77.33 72.69 74.02 68.98L74.02 68.98Q72.39 67.16 71.39 64.69Q70.38 62.22 69.40 57.80L69.40 57.80L68.82 57.93L69.66 73.47L70.51 73.47L71.87 69.89Q73.89 71.58 76.75 72.52Q79.61 73.47 82.66 73.47L82.66 73.47Z"></path></svg>