<svg xmlns="http://www.w3.org/2000/svg" width="256" height="256" viewBox="0 0 100 100"><path fill="#c60000" d="M64.89 29.66Q65.02 29.66 65.02 30.05Q65.02 30.44 64.89 30.44L64.89 30.44Q62.48 30.44 60.37 32.48Q58.25 34.53 56.89 38.10L56.89 38.10L44.86 70.22Q44.80 70.47 44.15 70.47L44.15 70.47Q43.50 70.47 43.43 70.22L43.43 70.22L35.11 52.60L28.55 70.22Q28.48 70.47 27.83 70.47L27.83 70.47Q27.18 70.47 27.12 70.22L27.12 70.22L10.54 35.05Q9.57 32.97 8.95 32.06Q8.33 31.15 7.59 30.79Q6.84 30.44 5.60 30.44L5.60 30.44Q5.41 30.44 5.41 30.05Q5.41 29.66 5.60 29.66L5.60 29.66Q6.58 29.66 6.97 29.72L6.97 29.72Q8.27 29.85 10.35 29.85L10.35 29.85Q14.70 29.85 17.69 29.72L17.69 29.72Q18.54 29.66 19.77 29.66L19.77 29.66Q19.97 29.66 19.97 30.05Q19.97 30.44 19.77 30.44L19.77 30.44Q18.15 30.44 17.47 30.76Q16.78 31.09 16.78 31.93L16.78 31.93Q16.78 33.03 18.28 36.22L18.28 36.22L29.98 61.05L34.07 50.33L26.86 35.05Q25.75 32.71 24.78 31.57Q23.80 30.44 22.70 30.44L22.70 30.44Q22.50 30.44 22.50 30.05Q22.50 29.66 22.70 29.66L22.70 29.66Q23.35 29.66 24.23 29.75Q25.10 29.85 26.73 29.85L26.73 29.85Q30.43 29.85 32.90 29.72L32.90 29.72Q33.55 29.66 34.59 29.66L34.59 29.66Q34.79 29.66 34.79 30.05Q34.79 30.44 34.59 30.44L34.59 30.44Q33.68 30.44 33.26 30.66Q32.84 30.89 32.84 31.48L32.84 31.48Q32.84 32.58 34.59 36.22L34.59 36.22L37.45 42.27L39.08 37.91Q40.51 34.20 40.51 32.32L40.51 32.32Q40.51 30.44 38.88 30.44L38.88 30.44Q38.69 30.44 38.69 30.05Q38.69 29.66 38.88 29.66L38.88 29.66Q39.40 29.66 40.02 29.75Q40.64 29.85 43.11 29.85L43.11 29.85Q44.21 29.85 45.77 29.72L45.77 29.72L48.18 29.66Q48.31 29.66 48.31 30.05Q48.31 30.44 48.18 30.44L48.18 30.44Q43.82 30.44 40.96 38.10L40.96 38.10L38.56 44.54L46.36 60.98L54.74 38.56Q55.52 36.48 55.52 34.79L55.52 34.79Q55.52 32.77 54.52 31.60Q53.51 30.44 51.82 30.44L51.82 30.44Q51.62 30.44 51.62 30.05Q51.62 29.66 51.82 29.66L51.82 29.66L54.81 29.72Q57.15 29.85 59.10 29.85L59.10 29.85Q60.40 29.85 62.09 29.72L62.09 29.72L64.89 29.66ZM75.81 36.22Q75.81 38.56 77.01 40.38Q78.21 42.20 79.97 43.56Q81.72 44.93 84.71 46.88L84.71 46.88Q87.96 48.96 89.91 50.52Q91.86 52.08 93.23 54.32Q94.59 56.56 94.59 59.49L94.59 59.49Q94.59 62.87 92.77 65.50Q90.95 68.14 87.73 69.60Q84.52 71.06 80.55 71.06L80.55 71.06Q77.63 71.06 74.44 70.25Q71.26 69.44 70.15 68.46L70.15 68.46Q69.83 68.20 69.66 67.97Q69.50 67.75 69.50 67.22L69.50 67.22L69.31 56.89L69.31 56.83Q69.31 56.56 69.63 56.53Q69.95 56.50 70.02 56.76L70.02 56.76Q71.97 60.73 73.43 63.20Q74.90 65.67 77.14 67.55Q79.38 69.44 82.24 69.44L82.24 69.44Q84.84 69.44 86.53 68.04Q88.22 66.64 88.22 63.26L88.22 63.26Q88.22 60.40 86.95 58.26Q85.69 56.11 83.87 54.62Q82.05 53.12 78.86 51.04L78.86 51.04Q75.74 49.03 74.02 47.59Q72.30 46.16 71.06 44.15Q69.83 42.14 69.83 39.41L69.83 39.41Q69.83 35.96 71.81 33.59Q73.79 31.21 76.91 30.08Q80.03 28.94 83.48 28.94L83.48 28.94Q85.75 28.94 88.09 29.36Q90.43 29.78 91.86 30.37L91.86 30.37Q92.45 30.63 92.64 30.92Q92.84 31.21 92.84 31.67L92.84 31.67L92.84 41.23Q92.84 41.42 92.51 41.52Q92.19 41.61 92.12 41.42L92.12 41.42L91.60 40.19Q89.98 36.09 87.80 33.23Q85.62 30.37 81.72 30.37L81.72 30.37Q79.12 30.37 77.46 31.87Q75.81 33.36 75.81 36.22L75.81 36.22Z"></path></svg>