<svg width="320.6" height="106.643" viewBox="0 0 320.6 106.643" xmlns="http://www.w3.org/2000/svg"><g id="svgGroup" stroke-linecap="round" fill-rule="evenodd" font-size="9pt" stroke="#00000000" stroke-width="0.25mm" fill="#d40000" style="stroke:#00000000;stroke-width:0.25mm;fill:#d40000"><path d="M 182 99 Q 182 101.524 183.035 103.053 A 4.695 4.695 0 0 0 184.6 104.5 A 4.877 4.877 0 0 1 182.336 101.552 Q 182 100.438 182 99 L 182 89 L 173.3 84 L 182 79 L 190.7 84 L 182 89 L 190.7 84 L 190.7 94 L 182 89 L 182 99 L 182 89 L 173.3 84 L 173.3 94 Q 173.3 95.438 173.636 96.552 A 4.877 4.877 0 0 0 175.9 99.5 L 184.6 104.5 Q 186.689 105.705 189.36 104.651 A 10.443 10.443 0 0 0 190.7 104 L 212.3 91.5 A 12.458 12.458 0 0 0 214.645 89.766 A 16.842 16.842 0 0 0 216.55 87.65 Q 218.5 85.1 219.75 82.1 A 20.878 20.878 0 0 0 219.822 81.924 Q 220.358 80.605 220.65 79.364 A 12.499 12.499 0 0 0 221 76.5 L 221 52.5 Q 221 51.156 220.701 50.095 A 4.925 4.925 0 0 0 218.35 47 Q 215.7 45.5 212.3 47.5 Q 214.243 46.357 215.957 46.357 A 4.957 4.957 0 0 1 218.4 47 L 209.7 42 Q 207.611 40.795 204.94 41.849 A 10.443 10.443 0 0 0 203.6 42.5 L 182 55 L 190.7 60 L 212.3 47.5 L 190.7 60 L 190.7 36 L 212.3 23.5 L 212.3 37.5 L 221 32.5 L 221 18.5 Q 221 17.156 220.701 16.095 A 4.925 4.925 0 0 0 218.35 13 Q 215.7 11.5 212.3 13.5 L 190.7 26 L 212.3 13.5 Q 214.243 12.357 215.957 12.357 A 4.957 4.957 0 0 1 218.4 13 L 209.7 8 Q 207.611 6.795 204.94 7.849 A 10.443 10.443 0 0 0 203.6 8.5 L 182 21 Q 179.7 22.3 177.7 24.85 Q 175.7 27.4 174.5 30.35 A 17.701 17.701 0 0 0 173.757 32.572 A 13.624 13.624 0 0 0 173.3 36 L 173.3 60 Q 173.3 61.438 173.636 62.552 A 4.877 4.877 0 0 0 175.9 65.5 L 184.6 70.5 Q 186.689 71.705 189.36 70.651 A 10.443 10.443 0 0 0 190.7 70 L 212.3 57.5 L 212.3 81.5 L 190.7 94 L 212.3 81.5 L 212.3 57.5 L 203.6 52.5 L 203.6 76.5 L 212.3 81.5 L 203.6 76.5 L 182 89 M 264.3 84 L 247 94 L 238.3 89 L 255.6 79 L 264.3 84 L 255.6 79 L 255.6 65 L 264.3 70 L 264.3 84 L 264.3 94 L 255.6 89 L 255.6 79 L 264.3 84 L 264.3 70 L 247 80 L 247 94 L 264.3 84 L 264.3 94 L 272.9 89 L 272.9 41 Q 272.9 39.563 272.564 38.448 A 4.877 4.877 0 0 0 270.3 35.5 A 4.678 4.678 0 0 0 267.924 34.857 Q 266.847 34.857 265.663 35.326 A 9.851 9.851 0 0 0 264.3 36 A 10.907 10.907 0 0 1 264.938 35.652 Q 267.947 34.142 270.3 35.5 L 261.7 30.5 Q 259.611 29.295 256.94 30.349 A 10.443 10.443 0 0 0 255.6 31 L 229.6 46 L 238.3 51 L 264.3 36 L 238.3 51 L 238.3 61 L 264.3 46 L 264.3 60 L 247 70 L 264.3 60 L 264.3 46 L 255.6 41 L 255.6 55 L 264.3 60 L 255.6 55 L 238.3 65 Q 236 66.3 234 68.85 Q 232 71.4 230.8 74.35 A 17.701 17.701 0 0 0 230.057 76.572 A 13.624 13.624 0 0 0 229.6 80 L 229.6 94 Q 229.6 95.438 229.936 96.552 A 4.877 4.877 0 0 0 232.2 99.5 L 240.9 104.5 Q 242.989 105.705 245.66 104.651 A 10.443 10.443 0 0 0 247 104 L 255.6 99 Q 257.9 97.7 259.9 95.15 Q 261.9 92.6 263.1 89.6 Q 263.663 88.194 263.961 86.875 A 13.002 13.002 0 0 0 264.3 84 Z M 43.3 93 L 26 103 A 9.851 9.851 0 0 1 24.637 103.674 Q 23.453 104.143 22.376 104.143 A 4.678 4.678 0 0 1 20 103.5 L 11.3 98.5 L 2.6 93.5 A 4.877 4.877 0 0 1 0.336 90.552 Q 0 89.438 0 88 L 0 30 L 8.7 35 L 8.7 93 L 17.4 98 L 30.3 90.5 L 30.3 22.5 L 39 17.5 L 39 85.5 L 52 78 L 52 10 L 60.7 5 L 60.7 63 A 12.499 12.499 0 0 1 60.35 65.864 Q 60.058 67.105 59.522 68.424 A 20.878 20.878 0 0 1 59.45 68.6 Q 58.2 71.6 56.25 74.15 A 16.842 16.842 0 0 1 54.345 76.266 A 12.458 12.458 0 0 1 52 78 A 13.002 13.002 0 0 1 51.661 80.875 Q 51.363 82.194 50.8 83.6 Q 49.6 86.6 47.6 89.15 Q 45.6 91.7 43.3 93 Z M 294.6 52.5 A 13.624 13.624 0 0 1 295.057 49.072 A 17.701 17.701 0 0 1 295.8 46.85 Q 297 43.9 299 41.35 Q 301 38.8 303.3 37.5 L 294.6 42.5 L 286 37.5 L 294.6 32.5 L 303.3 37.5 L 311.9 32.5 L 320.6 37.5 L 311.9 42.5 L 320.6 37.5 L 320.6 47.5 L 303.3 57.5 L 303.3 37.5 L 294.6 42.5 L 294.6 52.5 L 286 57.5 L 286 67.5 L 294.6 62.5 L 294.6 100.5 L 294.6 62.5 L 286 57.5 L 294.6 52.5 L 303.3 57.5 L 303.3 95.5 L 320.6 85.5 L 320.6 95.5 L 303.3 105.5 A 10.443 10.443 0 0 1 301.96 106.151 Q 299.289 107.205 297.2 106 L 288.6 101 A 5.175 5.175 0 0 1 288.56 100.976 Q 286 99.469 286 95.5 L 286 57.5 L 294.6 62.5 M 112.6 41 L 112.6 56 A 13.002 13.002 0 0 1 112.261 58.875 Q 111.963 60.194 111.4 61.6 Q 110.2 64.6 108.25 67.15 A 16.842 16.842 0 0 1 106.345 69.266 A 12.458 12.458 0 0 1 104 71 L 95.3 76 A 9.851 9.851 0 0 1 93.937 76.674 Q 92.753 77.143 91.676 77.143 A 4.678 4.678 0 0 1 89.3 76.5 L 80.6 71.5 A 4.877 4.877 0 0 1 78.336 68.552 Q 78 67.438 78 66 L 86.7 71 L 86.7 94 L 112.6 79 L 112.6 89 L 86.7 104 A 10.443 10.443 0 0 1 85.36 104.651 Q 82.689 105.705 80.6 104.5 L 71.9 99.5 A 4.877 4.877 0 0 1 69.636 96.552 Q 69.3 95.438 69.3 94 L 69.3 56 A 13.624 13.624 0 0 1 69.757 52.572 A 17.701 17.701 0 0 1 70.5 50.35 Q 71.7 47.4 73.7 44.85 Q 75.7 42.3 78 41 L 95.3 31 A 10.443 10.443 0 0 1 96.64 30.349 Q 99.311 29.295 101.4 30.5 L 110 35.5 Q 107.647 34.142 104.638 35.652 A 10.907 10.907 0 0 0 104 36 A 9.851 9.851 0 0 1 105.363 35.326 Q 106.547 34.857 107.624 34.857 A 4.678 4.678 0 0 1 110 35.5 A 4.877 4.877 0 0 1 112.264 38.448 Q 112.6 39.563 112.6 41 Z M 39 85.5 L 52 78 L 52 10 L 60.7 5 L 52 0 L 43.3 5 L 52 10 L 43.3 5 L 43.3 73 L 52 78 L 43.3 73 L 30.3 80.5 L 39 85.5 Z M 130 95 L 143 87.5 L 143 57.5 L 130 65 L 130 55 L 164.6 35 L 164.6 45 L 151.6 52.5 L 151.6 82.5 L 164.6 75 L 164.6 85 L 130 105 L 130 95 Z M 30.3 90.5 L 30.3 22.5 L 39 17.5 L 30.3 12.5 L 21.7 17.5 L 30.3 22.5 L 21.7 17.5 L 21.7 85.5 L 30.3 90.5 Z M 17.4 30 L 17.4 98 L 8.7 93 L 8.7 35 L 17.4 30 Z M 130 65 L 130 55 L 164.6 35 L 156 30 L 121.3 50 L 130 55 L 121.3 50 L 121.3 60 L 130 65 Z M 0 88 L 0 30 L 8.7 35 L 8.7 93 M 143 16.5 L 151.7 21.5 Q 149.9 20.5 147.3 22 A 8.506 8.506 0 0 1 148.291 21.506 Q 150.245 20.697 151.65 21.5 A 3.144 3.144 0 0 1 153.028 23.159 Q 153.4 24.117 153.4 25.5 A 11.01 11.01 0 0 1 152.573 29.625 A 14.256 14.256 0 0 1 151.65 31.5 A 13.679 13.679 0 0 1 149.721 34.09 A 10.877 10.877 0 0 1 147.3 36 A 8.506 8.506 0 0 1 146.309 36.494 Q 144.355 37.303 142.95 36.5 A 3.144 3.144 0 0 1 141.572 34.841 Q 141.2 33.883 141.2 32.5 Q 141.2 29.5 142.95 26.5 A 14.256 14.256 0 0 0 142.027 28.375 A 11.01 11.01 0 0 0 141.2 32.5 A 7.721 7.721 0 0 0 141.32 33.914 Q 141.46 34.663 141.763 35.23 A 3.078 3.078 0 0 0 143 36.5 L 134.3 31.5 Q 132.6 30.5 132.6 27.5 A 11.324 11.324 0 0 1 133.44 23.281 A 14.507 14.507 0 0 1 134.3 21.5 A 12.545 12.545 0 0 1 136.388 18.736 A 10.614 10.614 0 0 1 138.7 17 Q 141.3 15.5 143 16.5 Z M 143 57.5 L 134.3 52.5 L 134.3 82.5 L 143 87.5 L 143 57.5 Z M 86.7 94 L 112.6 79 L 104 74 L 78 89 L 86.7 94 Z M 78 99 L 78 61 L 78 99 Z M 86.7 71 L 104 61 L 104 46 L 86.7 56 L 86.7 71 Z M 286 57.5 L 294.6 52.5 L 294.6 42.5 L 286 37.5 L 286 47.5 L 294.6 52.5 L 286 47.5 L 286 37.5 M 286 57.5 L 277.3 52.5 L 286 57.5 L 286 67.5 L 277.3 62.5 L 277.3 52.5 L 286 57.5 Z M 95.3 56 L 104 61 L 86.7 71 L 78 66 L 95.3 56 Z M 303.3 95.5 L 320.6 85.5 L 311.9 80.5 L 294.6 90.5 L 303.3 95.5 Z M 143 87.5 L 134.3 82.5 L 121.3 90 L 130 95 L 143 87.5 Z M 104 61 L 104 46 L 95.3 41 L 95.3 56 L 104 61 Z M 17.4 98 L 30.3 90.5 L 21.7 85.5 L 8.7 93 L 17.4 98 Z M 151.6 82.5 L 164.6 75 L 156 70 L 143 77.5 L 151.6 82.5 Z M 212.3 37.5 L 212.3 23.5 L 203.6 18.5 L 203.6 32.5 L 212.3 37.5 Z M 182 65 L 182 41 L 182 65 Z M 130 105 L 130 95 L 121.3 90 L 121.3 100 L 130 105 Z M 238.3 51 L 229.6 46 L 229.6 56 L 238.3 61 L 238.3 51 Z M 86.7 46 L 104 36 L 86.7 46 Z M 8.7 35 L 17.4 30 L 8.7 25 L 0 30 M 238.3 99 L 238.3 85 L 238.3 99 Z M 86.7 46 Q 84.4 47.3 82.4 49.85 Q 80.4 52.4 79.2 55.35 Q 78 58.3 78 61 M 190.7 26 Q 188.4 27.3 186.4 29.85 Q 184.4 32.4 183.2 35.35 Q 182 38.3 182 41 M 247 70 Q 244.7 71.3 242.7 73.85 Q 240.7 76.4 239.5 79.35 Q 238.3 82.3 238.3 85 M 311.9 42.5 Q 309.6 43.8 307.65 46.35 Q 305.7 48.9 304.5 51.85 Q 303.3 54.8 303.3 57.5 M 91.676 77.143 A 4.678 4.678 0 0 1 89.3 76.5 A 4.695 4.695 0 0 1 87.735 75.053 Q 86.7 73.524 86.7 71 Q 86.7 74.969 89.26 76.476 A 5.175 5.175 0 0 0 89.3 76.5 M 182.336 67.552 A 4.877 4.877 0 0 0 184.6 70.5 A 4.695 4.695 0 0 1 183.035 69.053 Q 182 67.524 182 65 Q 182 66.438 182.336 67.552 Z M 78.336 101.552 A 4.877 4.877 0 0 0 80.6 104.5 A 4.695 4.695 0 0 1 79.035 103.053 Q 78 101.524 78 99 Q 78 100.438 78.336 101.552 Z M 238.636 101.552 A 4.877 4.877 0 0 0 240.9 104.5 A 4.695 4.695 0 0 1 239.335 103.053 Q 238.3 101.524 238.3 99 Q 238.3 100.438 238.636 101.552 Z M 294.936 103.052 A 4.877 4.877 0 0 0 297.2 106 A 4.695 4.695 0 0 1 295.635 104.553 Q 294.6 103.024 294.6 100.5 Q 294.6 101.938 294.936 103.052 Z M 142.95 26.5 A 13.679 13.679 0 0 1 144.879 23.91 A 10.877 10.877 0 0 1 147.3 22 A 11.214 11.214 0 0 0 144.127 24.771 A 14.488 14.488 0 0 0 142.95 26.5 Z M 22.376 104.143 A 4.678 4.678 0 0 1 20 103.5 A 4.695 4.695 0 0 1 18.435 102.053 Q 17.4 100.524 17.4 98 M 9.036 95.552 A 4.877 4.877 0 0 0 11.3 98.5 A 4.877 4.877 0 0 1 9.036 95.552 Z M 17.4 98 A 10.443 10.443 0 0 1 16.06 98.651 Q 13.389 99.705 11.3 98.5 M 20 103.5 A 4.877 4.877 0 0 1 17.736 100.552 Q 17.4 99.438 17.4 98 M 11.3 98.5 A 4.695 4.695 0 0 1 9.735 97.053 Q 8.7 95.524 8.7 93 M 182 41 A 13.624 13.624 0 0 1 182.457 37.572 A 17.701 17.701 0 0 1 183.2 35.35 M 78 61 A 13.624 13.624 0 0 1 78.457 57.572 A 17.701 17.701 0 0 1 79.2 55.35 M 303.3 57.5 A 13.624 13.624 0 0 1 303.757 54.072 A 17.701 17.701 0 0 1 304.5 51.85 M 238.3 85 A 13.624 13.624 0 0 1 238.757 81.572 A 17.701 17.701 0 0 1 239.5 79.35 M 82.4 49.85 A 17.71 17.71 0 0 1 84.274 47.796 A 12.908 12.908 0 0 1 86.7 46 M 186.4 29.85 A 17.71 17.71 0 0 1 188.274 27.796 A 12.908 12.908 0 0 1 190.7 26 M 242.7 73.85 A 17.71 17.71 0 0 1 244.574 71.796 A 12.908 12.908 0 0 1 247 70 M 307.65 46.35 A 16.842 16.842 0 0 1 309.555 44.234 A 12.458 12.458 0 0 1 311.9 42.5 M 8.7 93 Q 8.7 94.438 9.036 95.552 Q 8.7 94.438 8.7 93 Z M 79.2 55.35 Q 78 58.3 78 61 M 82.4 49.85 Q 80.4 52.4 79.2 55.35 M 183.2 35.35 Q 182 38.3 182 41 M 186.4 29.85 Q 184.4 32.4 183.2 35.35 M 239.5 79.35 Q 238.3 82.3 238.3 85 M 242.7 73.85 Q 240.7 76.4 239.5 79.35 M 304.5 51.85 Q 303.3 54.8 303.3 57.5 M 307.65 46.35 Q 305.7 48.9 304.5 51.85" vector-effect="non-scaling-stroke"/></g></svg>