<svg xmlns="http://www.w3.org/2000/svg" width="256" height="256" viewBox="0 0 100 100"><path fill="#c60000" d="M9.50 29.49L9.50 29.49Q12.82 27.35 16.62 26.15Q20.43 24.94 24.07 24.94L24.07 24.94Q24.52 24.94 25.07 24.98Q25.63 25.01 26.66 25.07L26.66 25.07L27.25 65.05L40.90 25.27L49.41 25.27L49.41 65.05L63.39 25.27L67.94 25.27L49.87 73.69L40.25 73.69L40.25 40.61L27.38 73.69L17.82 73.69L17.82 29.30Q12.63 30.92 9.96 34.56Q7.30 38.20 7.30 43.73L7.30 43.73Q7.30 44.96 7.46 45.87Q7.62 46.78 8.01 47.63L8.01 47.63Q8.14 47.89 8.17 47.99Q8.21 48.08 8.21 48.15L8.21 48.15Q4.57 48.15 2.91 46.62Q1.25 45.09 1.25 41.84L1.25 41.84Q1.25 38.59 3.43 35.34Q5.61 32.09 9.50 29.49ZM73.27 36.58L73.27 36.58Q73.27 31.57 77.59 28.26Q81.92 24.94 88.28 24.94L88.28 24.94Q93.22 24.94 95.99 26.96Q98.75 28.97 98.75 32.74L98.75 32.74Q98.75 35.67 97.29 37.49Q95.83 39.31 93.42 39.31L93.42 39.31Q92.51 39.31 91.76 38.98Q91.02 38.66 90.43 37.94L90.43 37.94Q91.73 37.16 92.54 35.60Q93.36 34.04 93.36 32.35L93.36 32.35Q93.36 30.27 92.12 29.14Q90.89 28.00 88.55 28.00L88.55 28.00Q85.75 28.00 84.16 29.56Q82.56 31.12 82.56 33.91L82.56 33.91Q82.56 36.19 83.73 38.24Q84.91 40.28 88.81 43.73L88.81 43.73Q93.94 48.21 95.56 51.50Q97.19 54.78 97.19 58.81L97.19 58.81Q97.19 66.22 92.06 70.64Q86.92 75.06 78.92 75.06L78.92 75.06Q72.56 75.06 68.85 72.13Q65.14 69.21 65.14 63.88L65.14 63.88Q65.14 59.20 67.94 56.21Q70.73 53.22 74.70 53.22L74.70 53.22Q77.17 53.22 78.73 54.36Q80.29 55.49 80.42 57.51L80.42 57.51Q77.04 57.51 74.93 59.13Q72.81 60.76 72.81 63.62L72.81 63.62Q72.81 66.35 74.50 68.10Q76.19 69.86 79.06 69.86L79.06 69.86Q82.44 69.86 84.52 67.52Q86.59 65.18 86.59 61.21L86.59 61.21Q86.59 58.16 85.23 55.36Q83.87 52.57 79.58 47.89L79.58 47.89Q75.67 43.73 74.47 41.36Q73.27 38.98 73.27 36.58Z"></path></svg>